<mxfile host="app.diagrams.net" modified="2024-06-09T08:32:25.257Z" agent="Mozilla/5.0 (Windows NT 10.0; Win64; x64) AppleWebKit/537.36 (KHTML, like Gecko) Chrome/125.0.0.0 Safari/537.36" version="24.5.2" etag="BHzY79CJ5orH-qQA_e9o" type="github">
  <diagram name="หน้า-1" id="PLyOmWbRRWhZ9oUN8xee">
    <mxGraphModel>
      <root>
        <mxCell id="0" />
        <mxCell id="1" parent="0" />
      </root>
    </mxGraphModel>
  </diagram>
</mxfile>
